<?xml version="1.0" encoding="utf-8"?>
<!-- Generator: Adobe Illustrator 18.1.1, SVG Export Plug-In . SVG Version: 6.00 Build 0)  -->
<!DOCTYPE svg PUBLIC "-//W3C//DTD SVG 1.1//EN" "http://www.w3.org/Graphics/SVG/1.1/DTD/svg11.dtd">
<svg version="1.1" id="Layer_1" xmlns="http://www.w3.org/2000/svg" xmlns:xlink="http://www.w3.org/1999/xlink" x="0px" y="0px"
	 viewBox="0 0 40 40" enable-background="new 0 0 40 40" xml:space="preserve">
<g>
	<g>
		<path fill="#FFFFFF" stroke="#000000" stroke-miterlimit="10" d="M21.6,24.2"/>
		<path fill="#FFFFFF" stroke="#000000" stroke-miterlimit="10" d="M21.6,14.4"/>
		<g>
			<path fill="#FFFFFF" d="M5.6,23.7c-0.2,0-0.2,0-0.2,0c0,0-0.1-0.2,0.1-0.7c0.3-1.3,0.6-3.1,0.6-3.4c0,0,0,0,0,0c0,0,0.1,0,0.1,0
				c0.1,0,2.4,0,2.4,0c1.1,0,3.8-2.4,4.4-2.9c0.2-0.2,0.4-0.4,0.6-0.6c0.4-0.4,1.2-1.1,1.5-1.2l1,0c1.2,0,3.2,0,4.6,0l0.6,8.8H5.6z"
				/>
			<path d="M15.2,15.4c0.2,0,0.5,0,0.9,0c1.1,0,2.8,0,4.2,0l0.5,7.8l-6,0H8.5H5.9c0,0,0-0.1,0-0.1c0.2-1,0.5-2.3,0.6-3
				c0.4,0,1,0,1.4,0l0.7,0c1.1,0,3.4-1.9,4.7-3c0.2-0.2,0.4-0.4,0.7-0.6C14.3,16.2,14.9,15.6,15.2,15.4 M15.1,14.4
				c-0.5,0-1.7,1.3-2.4,1.9c-1.3,1.1-3.4,2.7-4.1,2.7c-0.1,0-2.2,0-2.4,0c-0.3,0-0.6,0.3-0.6,0.5c0,0.2-0.4,2.1-0.6,3.3
				c-0.1,0.6-0.2,1.3,0.7,1.3c0.7,0,1.6,0,2.9,0h6.2l7.1,0l-0.6-9.8C19.3,14.5,15.3,14.4,15.1,14.4L15.1,14.4z"/>
		</g>
	</g>
	<circle fill="#FFFFFF" stroke="#000000" stroke-miterlimit="10" cx="11.8" cy="24" r="2"/>
	<g>
		<defs>
			<polygon id="SVGID_4_" points="15,27.5 39.9,27.5 39.9,12.5 21.1,13.1 			"/>
		</defs>
		<clipPath id="SVGID_1_">
			<use xlink:href="#SVGID_4_"  overflow="visible"/>
		</clipPath>
		<g clip-path="url(#SVGID_1_)">
			<circle cx="27.5" cy="24.6" r="2"/>
			<path d="M34.9,20.7c-0.6-0.3-1.9-0.8-3.2-1.1c-1.6-0.4-4.9-1-4.9-1l-4.3-4c-1-0.3-7.3-0.2-7.7-0.2c-0.5,0-1.7,1.3-2.4,1.9
				c-1.3,1.1-3.4,2.7-4.1,2.7c-0.1,0-2.2,0-2.4,0c-0.3,0-0.6,0.3-0.6,0.5c0,0.2-0.4,2.1-0.6,3.3c-0.1,0.6-0.2,1.3,0.7,1.3
				c0.7,0,1.6,0,2.9,0c0.1-1.3,1.1-2.4,2.4-2.7c1.7-0.4,3.3,0.7,3.7,2.4c0,0.1,0,0.2,0.1,0.3c3.8,0,6.5,0,10.1,0
				c0.1-1.3,1.1-2.4,2.4-2.7c1.7-0.4,3.3,0.7,3.7,2.4c0,0.1,0,0.2,0.1,0.3c1.3,0,2,0,2.1,0c1.4,0,2.2-0.3,2.4-0.6
				c0.1-0.1,0.3-1.9,0.3-2.5C35.3,20.9,35.2,20.8,34.9,20.7z"/>
			<circle cx="11.3" cy="24.6" r="2"/>
		</g>
	</g>
</g>
</svg>
