<?xml version="1.0" encoding="utf-8"?>
<!-- Generator: Adobe Illustrator 18.1.0, SVG Export Plug-In . SVG Version: 6.00 Build 0)  -->
<!DOCTYPE svg PUBLIC "-//W3C//DTD SVG 1.1//EN" "http://www.w3.org/Graphics/SVG/1.1/DTD/svg11.dtd">
<svg version="1.1" id="Layer_1" xmlns="http://www.w3.org/2000/svg" xmlns:xlink="http://www.w3.org/1999/xlink" x="0px" y="0px"
	 viewBox="0 0 40 40" enable-background="new 0 0 40 40" xml:space="preserve">
<g>
	<path d="M27.6,26.3c-1.2,0-2.1-0.8-2.4-1.9c0,0,0-0.2,0-0.4H13.8c-0.1,1.1-0.9,2.1-1.9,2.3c-1.3,0.3-2.6-0.6-2.9-1.8
		c0,0,0-0.2-0.1-0.4H5.4c-0.5,0-0.8-0.1-1-0.4c-0.3-0.4-0.2-1-0.1-1.4c0.2-1.2,0.6-3,0.6-3.2c0.1-0.5,0.6-0.9,1.1-0.9
		c0.1,0,1.1,0,1.7,0l0.7,0c0.4,0,2-1.1,3.7-2.6c0.2-0.2,0.4-0.4,0.6-0.6c1-0.9,1.6-1.5,2.1-1.5l0.4,0c0.7,0,2,0,3.3,0
		c3.1,0,3.9,0.1,4.2,0.2l0.2,0.1l4.2,3.9c0.7,0.1,3.4,0.7,4.8,1c1.2,0.3,2.6,0.7,3.3,1.1l0.1,0.1c0.3,0.1,0.7,0.3,0.6,0.9
		c0,0.3-0.2,2.4-0.4,2.6c-0.3,0.5-1.2,0.8-2.8,0.8H30c-0.1,1.1-0.9,2.1-1.9,2.3C27.9,26.3,27.8,26.3,27.6,26.3z M26.4,23l-0.2,0.7
		c0,0.1,0,0.4,0,0.6c0.2,0.8,0.9,1.2,1.7,1.1c0.7-0.2,1.2-1,1.1-1.7L28.9,23h3.8c1.2,0,1.7-0.2,1.9-0.3c0.1-0.4,0.2-1.5,0.3-2.1
		c0,0-0.1,0-0.1,0l-0.1-0.1c-0.5-0.3-1.8-0.7-3-1c-1.5-0.4-4.9-1-4.9-1l-0.1,0l-4.3-4c-0.3-0.1-1.1-0.1-3.8-0.1c-1.3,0-2.6,0-3.3,0
		l-0.4,0c-0.2,0.1-1,0.8-1.4,1.2c-0.2,0.2-0.4,0.4-0.6,0.6C12.2,16.6,9.4,19,8.4,19l-0.7,0c-0.7,0-1.6,0-1.7,0c0,0-0.1,0.1-0.1,0.1
		c0,0.2-0.4,2-0.6,3.2c0,0.1-0.1,0.5-0.1,0.6h0c0,0,0.1,0,0.3,0l4.5,0l-0.1,0.7c0,0.1,0.1,0.5,0.1,0.6c0.2,0.8,1,1.2,1.8,1.1
		c0.7-0.2,1.3-1,1.2-1.7L12.7,23H26H26.4z"/>
</g>
</svg>
