<?xml version="1.0" encoding="utf-8"?>
<!-- Generator: Adobe Illustrator 18.1.1, SVG Export Plug-In . SVG Version: 6.00 Build 0)  -->
<!DOCTYPE svg PUBLIC "-//W3C//DTD SVG 1.1//EN" "http://www.w3.org/Graphics/SVG/1.1/DTD/svg11.dtd">
<svg version="1.1" id="Layer_1" xmlns="http://www.w3.org/2000/svg" xmlns:xlink="http://www.w3.org/1999/xlink" x="0px" y="0px"
	 viewBox="0 0 40 40" enable-background="new 0 0 40 40" xml:space="preserve">
<g>
	<g>
		<path fill="none" stroke="#000000" stroke-miterlimit="10" d="M9,23.7"/>
		<path fill="none" stroke="#000000" stroke-miterlimit="10" d="M13.8,23.7"/>
		<path fill="none" stroke="#000000" stroke-miterlimit="10" d="M25.1,23.9H13.6"/>
		<path fill="none" stroke="#000000" stroke-miterlimit="10" d="M25.1,23.9"/>
		<path fill="none" stroke="#000000" stroke-miterlimit="10" d="M9,23.7H8.3c-1.4,0-2.2,0-2.9,0c-0.9,0-0.8-0.7-0.7-1.3
			c0.2-1.2,0.6-3.1,0.6-3.3c0-0.2,0.3-0.5,0.6-0.5c0.2,0,2.4,0,2.4,0c0.7,0,2.8-1.6,4.1-2.7c0.7-0.6,1.9-1.9,2.4-1.9
			c0.4,0,6.8-0.2,7.7,0.2l4.3,4c0,0,3.4,0.6,4.9,1c1.3,0.3,2.6,0.8,3.2,1.1c0.3,0.2,0.5,0.3,0.5,0.5c0,0.6-0.3,2.4-0.3,2.5
			c-0.1,0.3-0.9,0.6-2.4,0.6c-0.1,0-1.4,0-2.7,0"/>
	</g>
	<circle fill="none" stroke="#000000" stroke-miterlimit="10" cx="27.6" cy="24" r="2"/>
	<circle fill="none" stroke="#000000" stroke-miterlimit="10" cx="11.4" cy="24" r="2"/>
</g>
</svg>
