<?xml version="1.0" encoding="utf-8"?>
<!-- Generator: Adobe Illustrator 18.1.0, SVG Export Plug-In . SVG Version: 6.00 Build 0)  -->
<!DOCTYPE svg PUBLIC "-//W3C//DTD SVG 1.1//EN" "http://www.w3.org/Graphics/SVG/1.1/DTD/svg11.dtd">
<svg version="1.1" id="Layer_1" xmlns="http://www.w3.org/2000/svg" xmlns:xlink="http://www.w3.org/1999/xlink" x="0px" y="0px"
	 viewBox="0 0 40 40" enable-background="new 0 0 40 40" xml:space="preserve">
<g>
	<g>
		<path fill="#FFFFFF" stroke="#000000" stroke-miterlimit="10" d="M20.5,26.1"/>
	</g>
	<g>
		<path fill="#FFFFFF" stroke="#000000" stroke-miterlimit="10" d="M20.5,16.2"/>
	</g>
	<g>
		<g>
			<path fill="#FFFFFF" d="M7.2,25.6c-0.2,0-0.2,0-0.2,0c0,0-0.1-0.2,0.1-0.7c0.3-1.2,0.6-3.1,0.6-3.4c0,0,0,0,0,0
				c0,0,0.1-0.1,0.1-0.1c0.1,0,2.4,0,2.4,0c1.1,0,3.8-2.4,4.4-2.9c0.2-0.2,0.4-0.4,0.6-0.6c0.4-0.4,1.2-1.1,1.5-1.2l0.4,0
				c0.6,0,1.8,0,3.1,0l0,8.9H7.2z"/>
		</g>
		<g>
			<path d="M19.7,17.2l0,7.8h-3.5h-6.2H7.5c0,0,0-0.1,0-0.1c0.2-1,0.5-2.3,0.6-3c0.4,0,1,0,1.4,0l0.7,0c1.1,0,3.4-1.9,4.7-3
				c0.2-0.2,0.4-0.4,0.7-0.6c0.3-0.3,1-0.9,1.2-1.1c0.1,0,0.2,0,0.3,0C17.7,17.2,18.6,17.2,19.7,17.2 M20.4,16.2c-1.8,0-3.5,0-3.7,0
				c-0.5,0-1.7,1.3-2.4,1.9c-1.3,1.1-3.4,2.7-4.1,2.7c-0.1,0-2.2,0-2.4,0c-0.3,0-0.6,0.3-0.6,0.5c0,0.2-0.4,2.1-0.6,3.3
				c-0.1,0.6-0.2,1.3,0.7,1.3c0.7,0,1.6,0,2.9,0h6.2h4.5l0-9.9C20.6,16.2,20.5,16.2,20.4,16.2L20.4,16.2z"/>
		</g>
	</g>
</g>
<path fill="#FFFFFF" stroke="#000000" stroke-miterlimit="10" d="M11.4,25.5c0,0.3,0,0.5,0,0.8c0.2,1.1,1.3,1.7,2.3,1.5
	c1.1-0.2,1.7-1.3,1.5-2.3c-0.2-1.1-1.3-1.7-2.3-1.5C12.1,24.1,11.6,24.7,11.4,25.5"/>
<g>
	<circle cx="29.1" cy="26.4" r="2"/>
	<path d="M36.4,22.5c-0.6-0.3-1.9-0.8-3.2-1.1c-1.6-0.4-4.9-1-4.9-1l-4.5-4c-0.4-0.1-1.8-0.2-3.8-0.2V26c2,0,4,0,6,0
		c0.1-1,1.1-2.4,2.4-2.7c1.7-0.4,3.3,0.7,3.7,2.4c0,0.1,0,0.3,0.1,0.3c1.3,0,2,0,2.1,0c1.4,0,2.2-0.3,2.4-0.5
		c0.1-0.1,0.3-1.9,0.3-2.5C36.9,22.7,36.8,22.7,36.4,22.5z"/>
</g>
</svg>
