<?xml version="1.0" encoding="utf-8"?>
<!-- Generator: Adobe Illustrator 18.1.1, SVG Export Plug-In . SVG Version: 6.00 Build 0)  -->
<!DOCTYPE svg PUBLIC "-//W3C//DTD SVG 1.1//EN" "http://www.w3.org/Graphics/SVG/1.1/DTD/svg11.dtd">
<svg version="1.1" id="Layer_1" xmlns="http://www.w3.org/2000/svg" xmlns:xlink="http://www.w3.org/1999/xlink" x="0px" y="0px"
	 viewBox="0 0 40 40" enable-background="new 0 0 40 40" xml:space="preserve">
<g>
	<defs>
		<path id="SVGID_8_" d="M36.6,20.2c-0.6-0.3-1.9-0.8-3.2-1.1c-1.5-0.4-4.9-1-4.9-1l-4.3-4c-0.9-0.4-7.3-0.2-7.7-0.2
			c-0.5,0-1.7,1.5-2.4,2.1C12.8,17.2,10.7,19,10,19c0,0-2.2,0-2.4,0C7.3,19,7,19.1,7,19.3c0,0.2-0.4,2.2-0.6,3.4
			C6.3,23.2,6.2,24,7.1,24c0.7,0,1.5,0,2.9,0h0.7l0.4-0.2c0,0.1,0,0.1,0,0.2c0,1.1,0.9,2,2,2c1.1,0,2-0.9,2-2c0-0.1,0-0.2,0-0.3
			l12.2,0.1c0,0,0,0.1,0,0.1c0,1.1,0.9,2,2,2c1.1,0,2-0.9,2-2c0,0,0,0,0,0l0.4,0.1c1.3,0,2.6,0,2.7,0c1.5,0,2.3-0.4,2.4-0.7
			c0-0.1,0.3-1.9,0.3-2.5C37.1,20.6,36.9,20.4,36.6,20.2z"/>
	</defs>
	<clipPath id="SVGID_1_">
		<use xlink:href="#SVGID_8_"  overflow="visible"/>
	</clipPath>
	<g clip-path="url(#SVGID_1_)">
		<line fill="none" stroke="#000000" stroke-miterlimit="10" x1="12.7" y1="8.1" x2="1.1" y2="27.1"/>
		<line fill="none" stroke="#000000" stroke-miterlimit="10" x1="16" y1="8.1" x2="4.4" y2="27.1"/>
		<line fill="none" stroke="#000000" stroke-miterlimit="10" x1="19.3" y1="8.1" x2="7.7" y2="27.1"/>
		<line fill="none" stroke="#000000" stroke-miterlimit="10" x1="22.5" y1="8.1" x2="10.9" y2="27.1"/>
		<line fill="none" stroke="#000000" stroke-miterlimit="10" x1="25.8" y1="8.1" x2="14.2" y2="27.1"/>
		<line fill="none" stroke="#000000" stroke-miterlimit="10" x1="29.1" y1="8.1" x2="17.5" y2="27.1"/>
		<line fill="none" stroke="#000000" stroke-miterlimit="10" x1="32.4" y1="8.1" x2="20.8" y2="27.1"/>
		<line fill="none" stroke="#000000" stroke-miterlimit="10" x1="35.6" y1="8.1" x2="24" y2="27.1"/>
		<line fill="none" stroke="#000000" stroke-miterlimit="10" x1="38.9" y1="8.1" x2="27.3" y2="27.1"/>
		<line fill="none" stroke="#000000" stroke-miterlimit="10" x1="42.2" y1="8.1" x2="30.6" y2="27.1"/>
		<line fill="none" stroke="#000000" stroke-miterlimit="10" x1="45.4" y1="8.1" x2="33.9" y2="27.1"/>
		<line fill="none" stroke="#000000" stroke-miterlimit="10" x1="48.7" y1="8.1" x2="37.1" y2="27.1"/>
	</g>
</g>
<path fill="none" stroke="#000000" stroke-miterlimit="10" d="M36.6,20.2c-0.6-0.3-1.9-0.8-3.2-1.1c-1.5-0.4-4.9-1-4.9-1l-4.3-4
	c-0.9-0.4-7.3-0.2-7.7-0.2c-0.5,0-1.7,1.3-2.4,1.9c-1.3,1.1-3.4,2.7-4.1,2.7c0,0-2.2,0-2.4,0C7.3,18.5,7,18.8,7,19
	c0,0.2-0.4,2-0.6,3.2c-0.1,0.6-0.2,1.2,0.7,1.2c0.7,0,1.5,0,2.9,0h0.7l0.4,0.1c0,0.1,0,0.2,0,0.3c0,1.1,0.9,2,2,2c1.1,0,2-0.9,2-2
	c0-0.1,0-0.2,0-0.3l12.2,0.1c0,0,0,0.1,0,0.1c0,1.1,0.9,2,2,2c1.1,0,2-0.9,2-2c0,0,0-0.2,0-0.3l0.4-0.2c1.3,0,2.6,0,2.7,0
	c1.5,0,2.3-0.1,2.4-0.4c0-0.1,0.3-1.8,0.3-2.4C37.1,20.4,36.9,20.4,36.6,20.2z"/>
</svg>
