<?xml version="1.0" encoding="utf-8"?>
<!-- Generator: Adobe Illustrator 18.1.0, SVG Export Plug-In . SVG Version: 6.00 Build 0)  -->
<!DOCTYPE svg PUBLIC "-//W3C//DTD SVG 1.1//EN" "http://www.w3.org/Graphics/SVG/1.1/DTD/svg11.dtd">
<svg version="1.1" id="Layer_1" xmlns="http://www.w3.org/2000/svg" xmlns:xlink="http://www.w3.org/1999/xlink" x="0px" y="0px"
	 viewBox="0 0 40 40" enable-background="new 0 0 40 40" xml:space="preserve">
<g>
	<circle cx="27.6" cy="24" r="2"/>
	<path d="M34.9,20.1c-0.6-0.3-1.9-0.8-3.2-1.1c-1.6-0.4-4.9-1-4.9-1l-4.3-4c-1-0.3-7.3-0.2-7.7-0.2c-0.5,0-1.7,1.3-2.4,1.9
		c-1.3,1.1-3.4,2.7-4.1,2.7c-0.1,0-2.2,0-2.4,0c-0.3,0-0.6,0.3-0.6,0.5c0,0.2-0.4,2.1-0.6,3.3c-0.1,0.6-0.2,1.3,0.7,1.3
		c0.7,0,1.6,0,2.9,0c0.1-1.3,1.1-2.4,2.4-2.7c1.7-0.4,3.3,0.7,3.7,2.4c0,0.1,0,0.2,0.1,0.3c3.8,0,6.5,0,10.1,0
		c0.1-1.3,1.1-2.4,2.4-2.7c1.7-0.4,3.3,0.7,3.7,2.4c0,0.1,0,0.2,0.1,0.3c1.3,0,2,0,2.1,0c1.4,0,2.2-0.3,2.4-0.6
		c0.1-0.1,0.3-1.9,0.3-2.5C35.4,20.3,35.3,20.3,34.9,20.1z"/>
	<circle cx="11.4" cy="24" r="2"/>
</g>
</svg>
