<?xml version="1.0" encoding="utf-8"?>
<!-- Generator: Adobe Illustrator 18.1.0, SVG Export Plug-In . SVG Version: 6.00 Build 0)  -->
<!DOCTYPE svg PUBLIC "-//W3C//DTD SVG 1.1//EN" "http://www.w3.org/Graphics/SVG/1.1/DTD/svg11.dtd">
<svg version="1.1" id="Layer_1" xmlns="http://www.w3.org/2000/svg" xmlns:xlink="http://www.w3.org/1999/xlink" x="0px" y="0px"
	 viewBox="0 0 40 40" enable-background="new 0 0 40 40" xml:space="preserve">
<g>
	<path d="M16.5,21.8l-4,4c0,0-1.2,1.3,0.3,2.7c1.5,1.5,2.7,0.3,2.7,0.3l4-4L16.5,21.8z M14.4,28c-0.6,0-1.1-0.5-1.1-1.1
		c0-0.6,0.5-1.1,1.1-1.1c0.6,0,1.1,0.5,1.1,1.1C15.5,27.5,15,28,14.4,28z"/>
	<path d="M28.4,15.6c-1.3,1.3-2.6,0-2.6,0s-1.3-1.3,0-2.6c0.2-0.2,1.1-1.1,2.2-2.2c-1.5-0.5-3.2-0.2-4.3,1c-1.1,1.1-1.5,2.7-1.1,4.1
		l-2.5,2.5l-0.7-0.7c-0.4-0.4-0.5-0.8-0.4-1c0.2-0.2,0-0.6-0.4-1l-0.3-0.3c-0.4-0.4-1-0.4-1.4,0l-0.8,0.8l-4.9-4.9l-1.6-1l-0.2,0.2
		l1,1.6l4.9,4.9l-0.8,0.8c-0.4,0.4-0.4,1,0,1.4l0.3,0.3c0.4,0.4,0.8,0.5,1,0.4c0.1-0.1,0.5-0.1,0.8,0.2l0,0l0.1,0.1
		c0,0,0.1,0.1,0.1,0.1l0.7,0.7l0,0l3,3l0,0l2.7,2.7c0.4,0.4,0.7,0.9,0.7,1.1c0,0.2,0.3,0.7,0.7,1c0,0,0.6,0.6,2.2-1
		c1.6-1.6,1-2.2,1-2.2c-0.4-0.4-0.8-0.7-1.1-0.8c-0.2,0-0.7-0.3-1.1-0.7l-2.7-2.7l2.5-2.5c1.4,0.4,3,0,4.1-1.1
		c1.2-1.2,1.5-2.9,1-4.3C29.5,14.5,28.6,15.4,28.4,15.6z"/>
</g>
</svg>
