<?xml version="1.0" encoding="utf-8"?>
<!-- Generator: Adobe Illustrator 18.1.1, SVG Export Plug-In . SVG Version: 6.00 Build 0)  -->
<!DOCTYPE svg PUBLIC "-//W3C//DTD SVG 1.1//EN" "http://www.w3.org/Graphics/SVG/1.1/DTD/svg11.dtd">
<svg version="1.1" id="Layer_1" xmlns="http://www.w3.org/2000/svg" xmlns:xlink="http://www.w3.org/1999/xlink" x="0px" y="0px"
	 viewBox="0 0 40 40" enable-background="new 0 0 40 40" xml:space="preserve">
<g>
	<g>
		<path fill="#FFFFFF" stroke="#000000" stroke-width="1.25" stroke-miterlimit="10" d="M16.2,20.6c-0.9-1-2.2-1.5-3.6-1.5
			c-1.2,0-2.2,0.6-2.2,0.6l-1-0.6c0.1-0.3,1-0.9,1.6-1.1c0.9-0.3,1.9-0.6,2.8-0.5c1.8,0.2,2.5,0.6,3,0.9c0.8,0.4,1.5,0.7,2.2,0.6
			c1-0.1,0.7-1.4,2.8-1.9c1-0.3,1.9-0.2,2.4-0.1c0.5,0.1,1.1,0.3,1.4,0.5l-0.3-1.1l-1.2,0c-0.1,0-0.3-0.2-0.3-0.4
			c0-0.2,0.2-0.4,0.4-0.4h1.4c0.2,0,0.3,0.1,0.3,0.3l0.4,1.7c0.3-0.5,0.9-0.8,1.5-0.8c0.6,0,0.7,0.4,0.7,1.2c0,0.8-0.3,1.3-0.7,1.3
			c-0.4,0-0.5-0.1-0.9-0.3l0.3,1.1c0.1,0,0.3,0,0.4,0c2,0,3.6,1.6,3.6,3.6c0,2-1.6,3.6-3.6,3.6c-2,0-3.6-1.6-3.6-3.6
			c0-1.2,0.6-2.3,1.5-3l0.4,1.6c-0.3,0.4-0.5,0.8-0.5,1.4c0,1.2,1,2.2,2.2,2.2c1.2,0,2.2-1,2.2-2.2s-1-2.2-2.2-2.2c0,0-0.1,0-0.1,0
			l0.5,2c0.1,0.3-0.1,0.5-0.4,0.6c0,0-0.1,0-0.1,0c-0.2,0-0.4-0.2-0.5-0.4l-1-3.9c0,0-0.1-0.2-0.1-0.2c-0.9,0.3-1.9,1-2.4,1.9
			c-0.5,1-0.6,3-0.6,3.3c0,0.2-0.2,0.4-0.5,0.4c-0.5,0-1.6,0-2.7,0c-1.2,0-2.3-0.6-2.4-1.6c0-0.7-0.2-1.5-0.5-2.1l-0.9,0.6
			c0.2,0.5,0.3,1,0.3,1.5c0,2-1.6,3.6-3.6,3.6c-2,0-3.6-1.6-3.6-3.6c0-2,1.6-3.6,3.6-3.6c0.8,0,1.6,0.3,2.2,0.7l-1.4,0.9
			c-0.3-0.1-0.5-0.2-0.8-0.2c-1.2,0-2.1,1-2.1,2.1c0,1.2,1,2.1,2.1,2.1c1.2,0,2.1-1,2.1-2.1c0-0.2,0-0.5-0.1-0.7l-1.7,1.2
			c-0.1,0.1-0.2,0.1-0.3,0.1c-0.2,0-0.3-0.1-0.4-0.2c-0.2-0.2-0.1-0.5,0.1-0.7l1.8-1.2"/>
	</g>
</g>
<g>
	<path fill="#FFFFFF" d="M16.2,20.6c-0.9-1-2.2-1.5-3.6-1.5c-1.2,0-2.2,0.6-2.2,0.6l-1-0.6c0.1-0.3,1-0.9,1.6-1.1
		c0.9-0.3,1.9-0.6,2.8-0.5c1.8,0.2,2.5,0.6,3,0.9c0.8,0.4,1.5,0.7,2.2,0.6c1-0.1,0.7-1.4,2.8-1.9c1-0.3,1.9-0.2,2.4-0.1
		c0.5,0.1,1.1,0.3,1.4,0.5l-0.3-1.1l-1.2,0c-0.1,0-0.3-0.2-0.3-0.4c0-0.2,0.2-0.4,0.4-0.4h1.4c0.2,0,0.3,0.1,0.3,0.3l0.4,1.7
		c0.3-0.5,0.9-0.8,1.5-0.8c0.6,0,0.7,0.4,0.7,1.2c0,0.8-0.3,1.3-0.7,1.3c-0.4,0-0.5-0.1-0.9-0.3l0.3,1.1c0.1,0,0.3,0,0.4,0
		c2,0,3.6,1.6,3.6,3.6c0,2-1.6,3.6-3.6,3.6c-2,0-3.6-1.6-3.6-3.6c0-1.2,0.6-2.3,1.5-3l0.4,1.6c-0.3,0.4-0.5,0.8-0.5,1.4
		c0,1.2,1,2.2,2.2,2.2c1.2,0,2.2-1,2.2-2.2s-1-2.2-2.2-2.2c0,0-0.1,0-0.1,0l0.5,2c0.1,0.3-0.1,0.5-0.4,0.6c0,0-0.1,0-0.1,0
		c-0.2,0-0.4-0.2-0.5-0.4l-1-3.9c0,0-0.1-0.2-0.1-0.2c-0.9,0.3-1.9,1-2.4,1.9c-0.5,1-0.6,3-0.6,3.3c0,0.2-0.2,0.4-0.5,0.4
		c-0.5,0-1.6,0-2.7,0c-1.2,0-2.3-0.6-2.4-1.6c0-0.7-0.2-1.5-0.5-2.1l-0.9,0.6c0.2,0.5,0.3,1,0.3,1.5c0,2-1.6,3.6-3.6,3.6
		c-2,0-3.6-1.6-3.6-3.6c0-2,1.6-3.6,3.6-3.6c0.8,0,1.6,0.3,2.2,0.7l-1.4,0.9c-0.3-0.1-0.5-0.2-0.8-0.2c-1.2,0-2.1,1-2.1,2.1
		c0,1.2,1,2.1,2.1,2.1c1.2,0,2.1-1,2.1-2.1c0-0.2,0-0.5-0.1-0.7l-1.7,1.2c-0.1,0.1-0.2,0.1-0.3,0.1c-0.2,0-0.3-0.1-0.4-0.2
		c-0.2-0.2-0.1-0.5,0.1-0.7l1.8-1.2"/>
</g>
</svg>
