<?xml version="1.0" encoding="utf-8"?>
<!-- Generator: Adobe Illustrator 18.1.1, SVG Export Plug-In . SVG Version: 6.00 Build 0)  -->
<!DOCTYPE svg PUBLIC "-//W3C//DTD SVG 1.1//EN" "http://www.w3.org/Graphics/SVG/1.1/DTD/svg11.dtd">
<svg version="1.1" id="Layer_1" xmlns="http://www.w3.org/2000/svg" xmlns:xlink="http://www.w3.org/1999/xlink" x="0px" y="0px"
	 viewBox="0 0 40 40" enable-background="new 0 0 40 40" xml:space="preserve">
<g>
	<path d="M9.6,24.7l-1,1.6c0.3,0.4,0.6,0.7,1,1l0.8-1.4C10,25.5,9.7,25.1,9.6,24.7z"/>
	<path d="M11.8,19.1c0.1,0,0.2,0,0.3,0l1-1.7c0,0,0,0,0,0c-0.5,0-1,0-1.6,0.1l-1.1,1.8C10.8,19.2,11.3,19.1,11.8,19.1z"/>
	<path d="M11.8,21.7c0.3,0,0.6,0.1,0.9,0.2l0.2-0.1l0.7-1.2c-0.4-0.2-0.8-0.4-1.3-0.4l-1,1.6C11.5,21.7,11.6,21.7,11.8,21.7z"/>
	<path d="M11.5,23.6c-0.2,0.2-0.3,0.5-0.2,0.7l0.6-1L11.5,23.6z"/>
	<path d="M15.7,20.8l-2.3,1.6l-1.3,2.2l1.9-1.2c0.1,0.2,0.1,0.3,0.1,0.5l3-5c-0.3-0.1-0.5-0.2-0.8-0.4c-0.1-0.1-0.3-0.1-0.4-0.2
		L14.8,20C15.1,20.2,15.4,20.5,15.7,20.8z"/>
	<path d="M31.7,24c0-0.1,0-0.2,0-0.3l-2.3,3.8C30.8,27,31.7,25.6,31.7,24z"/>
	<path d="M28.3,23.9l-0.4-1.7l-0.8,1.3l0.2,0.7c0.1,0.2,0.3,0.4,0.5,0.4c0,0,0.1,0,0.1,0c0,0,0,0,0,0L28.3,23.9
		C28.3,23.9,28.3,23.9,28.3,23.9z"/>
	<path d="M12.9,19.2c0.5,0.1,0.9,0.2,1.3,0.4l1.1-1.7c-0.3-0.1-0.8-0.2-1.3-0.3L12.9,19.2z"/>
	<path d="M23.5,21.8c0.5-1,1.6-1.7,2.6-2.1l1.9-3.1c-0.5,0-1.1,0.3-1.5,0.8L26.3,17l-5.5,9c0.6,0,1.1,0,1.4,0c0.1,0,0.1-0.1,0.2-0.1
		l0.4-0.8C22.9,24.4,23,22.7,23.5,21.8z"/>
	<path d="M15.5,22.9l-3,5c1-0.2,1.9-0.8,2.5-1.6l0.2-0.4c0.3-0.6,0.5-1.2,0.5-1.9C15.7,23.6,15.6,23.2,15.5,22.9z"/>
	<path d="M21.7,17c-0.1,0-0.2,0.1-0.3,0.1l-4.5,7.3c0.2,0.4,0.5,0.8,0.9,1l5.3-8.6C22.7,16.8,22.2,16.9,21.7,17z"/>
	<path d="M24.2,16.9c-0.1,0-0.2,0-0.3,0l-5.4,9c0.3,0.1,0.6,0.2,0.8,0.2c0.2,0,0.4,0,0.6,0l5.2-8.7C24.9,17.2,24.6,16.9,24.2,16.9z"
		/>
	<path d="M10,22.6l1.5-2.4c-0.7,0.1-1.4,0.3-2,0.7l-1.5,2.5c0,0.2-0.1,0.4-0.1,0.6c0,0.5,0.1,1,0.3,1.5l1.5-2.4
		C9.7,22.9,9.8,22.7,10,22.6z"/>
	<path d="M23.9,15.4c-0.1,0.1-0.2,0.2-0.2,0.4c0,0,0,0,0,0L23.9,15.4z"/>
	<path d="M24.3,16.2l1,0l0.2,0.6l0.6-0.9L26,15.6c0-0.2-0.2-0.3-0.3-0.3h-0.8L24.3,16.2z"/>
	<path d="M10.5,17.8c-0.2,0-0.3,0.1-0.5,0.1c-0.6,0.2-1.5,0.8-1.7,1.1l1,0.6L10.5,17.8z"/>
	<path d="M27,26.2c-0.4-0.2-0.8-0.5-1-0.8l-0.9,1.4c0.3,0.3,0.7,0.6,1.1,0.8L27,26.2z"/>
	<path d="M29,20.3l-0.9,1.4c0.5,0.1,0.9,0.3,1.2,0.5l0.8-1.3C29.8,20.7,29.4,20.5,29,20.3z"/>
	<path d="M31.5,22.7c-0.2-0.5-0.4-0.9-0.8-1.3l-0.9,1.4c0.2,0.3,0.3,0.7,0.3,1.1c0,1.3-1,2.3-2.3,2.3c0,0-0.1,0-0.1,0l-0.9,1.4
		c0.3,0.1,0.6,0.1,1,0.1c0.2,0,0.3,0,0.5-0.1L31.5,22.7z"/>
	<path d="M25.6,24.5c0-0.2-0.1-0.3-0.1-0.5c0-0.6,0.2-1.1,0.5-1.5l-0.2-0.9L24,24.6c0.1,0.6,0.3,1.1,0.6,1.6L25.6,24.5z"/>
	<path d="M28,19.3c0.5,0,0.7-0.5,0.8-1.4c0-0.4,0-0.8-0.2-1l-1.3,2.2C27.6,19.2,27.7,19.3,28,19.3z"/>
	<path d="M18.7,19.1c-0.3,0-0.6,0-0.9-0.1L16,22l0.3-0.2c0.2,0.4,0.4,1,0.4,1.5l3.3-5.4C19.5,18.5,19.4,19,18.7,19.1z"/>
	<path d="M12.6,26.2c-0.3,0.1-0.5,0.2-0.8,0.2c-0.3,0-0.5-0.1-0.7-0.1l-0.8,1.4c0.4,0.2,0.9,0.3,1.3,0.3L12.6,26.2z"/>
	<path d="M25.3,21.1c-0.6,0.5-1,1.2-1.2,2L25.3,21.1z"/>
	<path d="M27.8,20.1c-0.1,0-0.3,0-0.4,0l-0.2-0.8l-0.8,1.4l0.5,1.7l1.4-2.3C28.1,20.1,28,20.1,27.8,20.1z"/>
</g>
</svg>
