<?xml version="1.0" encoding="utf-8"?>
<!-- Generator: Adobe Illustrator 18.1.1, SVG Export Plug-In . SVG Version: 6.00 Build 0)  -->
<!DOCTYPE svg PUBLIC "-//W3C//DTD SVG 1.1//EN" "http://www.w3.org/Graphics/SVG/1.1/DTD/svg11.dtd">
<svg version="1.1" id="Layer_1" xmlns="http://www.w3.org/2000/svg" xmlns:xlink="http://www.w3.org/1999/xlink" x="0px" y="0px"
	 viewBox="0 0 40 40" enable-background="new 0 0 40 40" xml:space="preserve">
<g>
	<g>
		<path d="M15.8,20.5c-0.9-1.1-2.3-1.6-3.9-1.6c-1.3,0-2.4,0.6-2.4,0.6l-1-0.6c0.2-0.3,1-0.9,1.7-1.1c0.9-0.3,2.1-0.6,3-0.5
			c1.9,0.2,2.6,0.6,3.3,0.9c0.9,0.5,1.7,0.7,2.4,0.6c1.1-0.1,0.8-1.5,3-2.1c1-0.3,2-0.3,2.5-0.1c0.6,0.1,1.1,0.3,1.5,0.6L25.5,16
			l-1.3,0c-0.2,0-0.4-0.2-0.4-0.4c0-0.3,0.2-0.4,0.4-0.4h1.6c0.2,0,0.3,0.1,0.3,0.3l0.5,1.8c0.4-0.5,1-0.8,1.6-0.8
			c0.6,0,0.8,0.5,0.8,1.3c0,0.9-0.3,1.4-0.8,1.4c-0.5,0-0.5-0.1-1-0.3l0.3,1.2c0.1,0,0.3,0,0.4,0c2.1,0,3.9,1.7,3.9,3.9
			c0,2.1-1.7,3.9-3.9,3.9c-2.1,0-3.9-1.7-3.9-3.9c0-1.3,0.6-2.5,1.6-3.2l0.4,1.7c-0.3,0.4-0.5,0.9-0.5,1.5c0,1.3,1,2.3,2.3,2.3
			c1.3,0,2.3-1,2.3-2.3c0-1.3-1-2.3-2.3-2.3c0,0-0.1,0-0.1,0l0.6,2.2c0.1,0.3-0.1,0.6-0.4,0.7c0,0-0.1,0-0.1,0
			c-0.2,0-0.5-0.2-0.5-0.4l-1.1-4.1l-0.1-0.2c-1,0.4-2,1-2.6,2.1c-0.6,1-0.6,3.2-0.6,3.5c0,0.3-0.3,0.4-0.6,0.4c-0.5,0-1.7,0-2.9,0
			c-1.2,0-2.5-0.6-2.6-1.8c0-0.8-0.2-1.6-0.5-2.2l-1,0.7c0.2,0.5,0.3,1,0.3,1.6c0,2.1-1.7,3.9-3.9,3.9c-2.1,0-3.9-1.7-3.9-3.9
			c0-2.1,1.7-3.9,3.9-3.9c0.9,0,1.7,0.3,2.4,0.8l-1.5,1c-0.3-0.1-0.6-0.2-0.9-0.2c-1.3,0-2.3,1-2.3,2.3s1,2.3,2.3,2.3
			c1.3,0,2.3-1,2.3-2.3c0-0.3,0-0.5-0.1-0.8l-1.9,1.2c-0.1,0.1-0.2,0.1-0.3,0.1c-0.2,0-0.3-0.1-0.4-0.2c-0.2-0.2-0.1-0.6,0.1-0.7
			l1.9-1.3"/>
	</g>
	<g>
		<path fill="none" d="M11.5,23.4c0,0.8,0.6,1.4,1.4,1.4c0.6,0,1.2-0.4,1.4-1l-0.8,0.5c-0.5,0.3-1.1,0.2-1.5-0.3
			c-0.3-0.5-0.2-1.1,0.3-1.5l0.8-0.6c-0.1,0-0.2,0-0.3,0C12.2,22,11.5,22.6,11.5,23.4z"/>
		<g>
			<path d="M19.3,18.2c-0.2,0.3-0.3,0.3-0.4,0.3c-0.5,0-1.1-0.1-1.8-0.5c-0.6-0.3-1.3-0.7-3.1-0.9c-1.1-0.1-2.3,0.2-2.9,0.5
				c-0.6,0.2-1.5,0.8-1.8,1.3l-0.2,0.5l1.4,0.8C9.6,21,9,22.1,9,23.4c0,2.2,1.8,4,4,4c2,0,3.6-1.5,3.9-3.4c0.1,0.4,0.4,0.7,0.7,0.9
				l0.3-0.5c-0.3-0.2-0.5-0.6-0.5-1c0-0.7-0.2-1.4-0.4-2L16.1,22c0.2,0.4,0.3,0.9,0.3,1.4c0,1.9-1.5,3.4-3.4,3.4
				c-1.9,0-3.4-1.5-3.4-3.4c0-1.9,1.5-3.4,3.4-3.4c0.8,0,1.5,0.3,2,0.7l-1.3,0.8c-0.2-0.1-0.5-0.2-0.8-0.2c-1.1,0-2,0.9-2,2
				s0.9,2,2,2c1.1,0,2-0.9,2-2c0-0.2,0-0.5-0.1-0.7l-1.6,1.1c-0.1,0.1-0.2,0.1-0.3,0.1c-0.2,0-0.3-0.1-0.4-0.2
				c-0.1-0.2-0.1-0.5,0.1-0.6l1.6-1.1l2-1.4c-0.8-0.9-2-1.4-3.4-1.4c-1.1,0-2.1,0.5-2.1,0.5L10,19.2c0.1-0.3,0.9-0.8,1.5-1
				c0.8-0.3,1.8-0.5,2.6-0.4c1.7,0.2,2.3,0.5,2.8,0.8c0.8,0.4,1.4,0.6,2.1,0.6c0.9-0.1,0.7-1.2,2.5-1.8l1.1-0.7
				c-0.1,0-0.9,0.2-1.1,0.2C20.2,17.2,19.7,17.8,19.3,18.2z M12.4,22.6c-0.5,0.3-0.6,1-0.3,1.5c0.3,0.5,1,0.6,1.5,0.3l0.8-0.5
				c-0.2,0.6-0.7,1-1.4,1c-0.8,0-1.4-0.6-1.4-1.4S12.2,22,13,22c0.1,0,0.2,0,0.3,0L12.4,22.6z"/>
			<path d="M12.8,27.9c-2.5,0-4.5-2-4.5-4.5c0-1.2,0.5-2.3,1.3-3.1l-1.2-0.7l0.4-0.9c0.3-0.7,1.4-1.3,2.1-1.5c0.8-0.3,2-0.6,3.1-0.5
				c1.9,0.2,2.7,0.6,3.2,0.9c0.5,0.3,1,0.4,1.4,0.4h0c0,0,0.8-0.7,2.3-1.1c0.1,0,0.2-0.1,0.3-0.1l1.1-0.2l-0.7,1.1l-0.2,0.1
				c-0.8,0.3-1.1,0.6-1.4,1c-0.3,0.3-0.5,0.7-1.2,0.8c-0.7,0.1-1.5-0.1-2.4-0.6c-0.5-0.3-1.1-0.6-2.7-0.8c-0.7-0.1-1.5,0.1-2.4,0.4
				c-0.3,0.1-0.6,0.3-0.8,0.4l0.1,0.1c0.4-0.2,1.2-0.5,2-0.5c1.5,0,2.9,0.6,3.8,1.6l0.4,0.4l-2,1.4l0.2,0.6c0.1,0.3,0.1,0.5,0.1,0.8
				c0,1.4-1.1,2.5-2.5,2.5c-1.4,0-2.5-1.1-2.5-2.5s1.1-2.5,2.5-2.5c0.2,0,0.5,0,0.7,0.1l0.4-0.3c-0.3-0.1-0.7-0.2-1.1-0.2
				c-1.6,0-2.9,1.3-2.9,2.9c0,1.6,1.3,2.9,2.9,2.9s2.9-1.3,2.9-2.9c0-0.4-0.1-0.8-0.3-1.2l-0.2-0.4l1.7-1.1l0.3,0.5
				c0.4,0.7,0.5,1.6,0.5,2.2c0,0.2,0.1,0.4,0.3,0.6l0.3,0.3l1.1,1.3l-1.6,0c-0.1-0.1-0.8-0.3-0.8-0.4C16.2,26.8,14.6,27.9,12.8,27.9
				z"/>
		</g>
		<path fill="#FFFFFF" d="M19,19.1c-0.6,0-1.3-0.2-2.1-0.6c-0.5-0.3-1.2-0.6-2.8-0.8c-0.8-0.1-1.8,0.2-2.6,0.4
			c-0.6,0.2-1.3,0.7-1.5,1l0.9,0.6c0,0,1-0.5,2.1-0.5c1.4,0,2.6,0.5,3.4,1.4l-2,1.4l-1.6,1.1c-0.2,0.1-0.3,0.4-0.1,0.6
			c0.1,0.1,0.2,0.2,0.4,0.2c0.1,0,0.2,0,0.3-0.1l1.6-1.1c0.1,0.2,0.1,0.4,0.1,0.7c0,1.1-0.9,2-2,2c-1.1,0-2-0.9-2-2s0.9-2,2-2
			c0.3,0,0.5,0.1,0.8,0.2l1.3-0.8c-0.6-0.4-1.3-0.7-2-0.7c-1.9,0-3.4,1.5-3.4,3.4c0,1.9,1.5,3.4,3.4,3.4c1.9,0,3.4-1.5,3.4-3.4
			c0-0.5-0.1-1-0.3-1.4l0.9-0.6c0.3,0.6,0.4,1.3,0.4,2c0,0.4,0.2,0.7,0.5,1l4-6.6C20,18.3,19.9,19,19,19.1z"/>
	</g>
</g>
</svg>
