<?xml version="1.0" encoding="utf-8"?>
<!-- Generator: Adobe Illustrator 18.1.1, SVG Export Plug-In . SVG Version: 6.00 Build 0)  -->
<!DOCTYPE svg PUBLIC "-//W3C//DTD SVG 1.1//EN" "http://www.w3.org/Graphics/SVG/1.1/DTD/svg11.dtd">
<svg version="1.1" id="Layer_1" xmlns="http://www.w3.org/2000/svg" xmlns:xlink="http://www.w3.org/1999/xlink" x="0px" y="0px"
	 viewBox="0 0 40 40" enable-background="new 0 0 40 40" xml:space="preserve">
<g>
	<path d="M29.8,25.2c0,0,0,0.1-0.1,0.1c-0.1,0.7-0.2,1.4-0.8,1.8c-0.8,0.7-1.7,1.1-2.8,1.3c-0.8,0.1-1.6,0-2.4-0.3
		c-3.4-0.9-6.1-3-8.4-5.7c-1.8-2-2.9-4.4-3.4-7c0,0,0-0.1-0.1-0.1c0-0.4,0-0.7,0-1.1c0.2-0.9,0.5-1.7,1-2.5c0.7-1,1.7-1.2,2.8-1.3
		c0.2,0,0.5,0.2,0.6,0.4c0.4,0.6,0.7,1.3,1.1,2c0.2,0.4,0.5,0.8,0.8,1.3c0.3,0.5,0.3,0.8-0.1,1.3c-0.4,0.4-0.9,0.8-1.4,1.2
		c-0.6,0.6-0.6,0.8-0.3,1.5c1.4,2.5,3.3,4.5,5.8,5.8c0.7,0.4,0.9,0.4,1.4-0.2c0.4-0.5,0.8-1,1.2-1.4c0.5-0.5,0.7-0.5,1.3-0.1
		c1,0.6,2,1.2,3,1.8c0.2,0.1,0.4,0.3,0.6,0.5C29.8,24.7,29.8,24.9,29.8,25.2z"/>
</g>
</svg>
