<?xml version="1.0" encoding="utf-8"?>
<!-- Generator: Adobe Illustrator 18.1.0, SVG Export Plug-In . SVG Version: 6.00 Build 0)  -->
<!DOCTYPE svg PUBLIC "-//W3C//DTD SVG 1.1//EN" "http://www.w3.org/Graphics/SVG/1.1/DTD/svg11.dtd">
<svg version="1.1" id="Layer_1" xmlns="http://www.w3.org/2000/svg" xmlns:xlink="http://www.w3.org/1999/xlink" x="0px" y="0px"
	 viewBox="0 0 40 40" enable-background="new 0 0 40 40" xml:space="preserve">
<g>
	<g>
		<path fill-rule="evenodd" clip-rule="evenodd" d="M22.1,20.3c-1.1,0-1.5,1-1.5,1.5c0,0.8,0,1.2,0,1.8c0,0.9,0,7.3,0,7.3
			c0,0.4,0.3,0.8,0.8,0.8h2v-6.2c0,0,0.1-0.3,0.4-0.3c0.4,0,0.4,0.3,0.4,0.3c0,0,0,5.2,0,5.4c0,0.3,0.2,0.8,0.8,0.8
			c0.5,0,3.8,0,5.8,0c0.5,0,0.8-0.4,0.8-0.8c0-0.3,0-5.4,0-5.4s0.1-0.3,0.4-0.3c0.3,0,0.4,0.3,0.4,0.3v6.2h2c0.4,0,0.8-0.4,0.8-0.8
			c0,0,0-6.3,0-7.3c0-0.6,0-1,0-1.8c0-1-0.9-1.5-1.5-1.5C30.6,20.3,23.5,20.3,22.1,20.3z"/>
		<g>
			<g>
				<ellipse fill-rule="evenodd" clip-rule="evenodd" cx="27.9" cy="15.3" rx="4.1" ry="4"/>
			</g>
		</g>
	</g>
	<g>
		<path fill-rule="evenodd" clip-rule="evenodd" d="M6.4,20.3c-1.1,0-1.5,1-1.5,1.5c0,0.8,0,1.2,0,1.8c0,0.9,0,7.3,0,7.3
			c0,0.4,0.3,0.8,0.8,0.8h2v-6.2c0,0,0.1-0.3,0.4-0.3c0.4,0,0.4,0.3,0.4,0.3c0,0,0,5.2,0,5.4c0,0.3,0.2,0.8,0.8,0.8
			c0.5,0,3.8,0,5.8,0c0.5,0,0.8-0.4,0.8-0.8c0-0.3,0-5.4,0-5.4s0.1-0.3,0.4-0.3c0.3,0,0.4,0.3,0.4,0.3v6.2h2c0.4,0,0.8-0.4,0.8-0.8
			c0,0,0-6.3,0-7.3c0-0.6,0-1,0-1.8c0-1-0.9-1.5-1.5-1.5C14.8,20.3,7.7,20.3,6.4,20.3z"/>
		<g>
			<g>
				<ellipse fill-rule="evenodd" clip-rule="evenodd" cx="12.1" cy="15.3" rx="4.1" ry="4"/>
			</g>
		</g>
	</g>
</g>
</svg>
