<?xml version="1.0" encoding="utf-8"?>
<!-- Generator: Adobe Illustrator 18.1.1, SVG Export Plug-In . SVG Version: 6.00 Build 0)  -->
<!DOCTYPE svg PUBLIC "-//W3C//DTD SVG 1.1//EN" "http://www.w3.org/Graphics/SVG/1.1/DTD/svg11.dtd">
<svg version="1.1" id="Layer_1" xmlns="http://www.w3.org/2000/svg" xmlns:xlink="http://www.w3.org/1999/xlink" x="0px" y="0px"
	 viewBox="0 0 40 40" enable-background="new 0 0 40 40" xml:space="preserve">
<path d="M32.4,23.2c-0.5,3.8-2.5,7.1-5.4,9.1c-2.4,1.7-5.4,2.5-8.5,2.1c-3.6-0.4-6.7-2.5-8.7-5.3c-1.7-2.5-2.6-5.6-2.2-8.9
	c0.5-3.8,2.5-7,5.4-9.1c2.4-1.7,5.4-2.5,8.5-2.1c3.1,0.4,5.8,1.9,7.8,4.1C31.6,15.7,32.8,19.4,32.4,23.2z"/>
<path fill="#FFFFFF" d="M19.8,25.3c1.2,0.1,2.1,1.1,2,2.3c-0.1,1.2-1.1,2.1-2.3,2c-1.2-0.1-2.1-1.1-2-2.3
	C17.6,26.1,18.6,25.2,19.8,25.3z M18.8,15c0-0.7,0.6-1.2,1.3-1.2l1.1,0.1c0.7,0,1.2,0.7,1.2,1.4l-0.8,7.4c-0.1,0.7-0.7,1.2-1.4,1.2
	l-0.5,0c-0.7,0-1.3-0.7-1.2-1.4L18.8,15z"/>
</svg>
